<svg xmlns="http://www.w3.org/2000/svg" width="960" height="320" viewBox="0 0 960 320" role="img" aria-labelledby="title desc">
  <title id="title">ThoughtCodec Logo Route 05 - Wordmark First</title>
  <desc id="desc">A wordmark-first lockup with a compact modular companion mark.</desc>
  <rect width="960" height="320" rx="40" fill="#f8fafc"/>
  <g transform="translate(72 72)">
    <rect width="176" height="176" rx="44" fill="#0f172a"/>
    <path fill="#f8fafc" d="M54 42h44v44H54c-8 0-14-6-14-14V56c0-8 6-14 14-14Zm62 0h16c8 0 14 6 14 14v16c0 8-6 14-14 14h-16V42ZM40 104c0-8 6-14 14-14h44v44H54c-8 0-14-6-14-14v-16Zm76-14h16c8 0 14 6 14 14v16c0 8-6 14-14 14h-16V90Z"/>
    <path fill="#22d3ee" d="M88 78 118 108 88 138 58 108l30-30Z"/>
    <path fill="#0f172a" d="M88 94 102 108 88 122 74 108l14-14Z"/>
  </g>
  <text x="300" y="144" fill="#0f172a" font-family="Inter, Arial, sans-serif" font-size="62" font-weight="800" letter-spacing="0">ThoughtCodec</text>
  <text x="304" y="198" fill="#475569" font-family="Inter, Arial, sans-serif" font-size="28" font-weight="600" letter-spacing="0">Compress experience into skills</text>
</svg>
